<svg width="108" height="108" viewBox="0 0 108 108" fill="none" xmlns="http://www.w3.org/2000/svg">
<g id="Icon-Footer-G2">
<g id="Group 31 Copy">
<g id="Rectangle Copy 13" filter="url(#filter0_d_2_31)">
<rect x="24" y="20" width="60" height="60" rx="30" fill="white"/>
</g>
<g id="Group 13">
<g id="Group 3">
<mask id="mask0_2_31" style="mask-type:alpha" maskUnits="userSpaceOnUse" x="38" y="34" width="25" height="33">
<path id="Clip 2" fill-rule="evenodd" clip-rule="evenodd" d="M38.6133 34.6201H62.9995V66.7081H38.6133V34.6201Z" fill="white"/>
</mask>
<g mask="url(#mask0_2_31)">
<path id="Fill 1" fill-rule="evenodd" clip-rule="evenodd" d="M59.8616 57.8451C59.7465 57.637 59.707 57.6278 59.5244 57.7733C59.0829 58.1252 58.6232 58.4482 58.1361 58.7275C56.9576 59.4033 55.7025 59.7978 54.3533 59.8406C53.2702 59.875 52.2222 59.6804 51.1959 59.3243C49.4019 58.702 47.9426 57.6004 46.8594 55.9861C45.4242 53.8473 44.9257 51.4763 45.3968 48.9102C45.782 46.8127 46.7735 45.0625 48.3361 43.6811C49.8978 42.3004 51.713 41.5842 53.7578 41.5085C53.938 41.5018 54.0448 41.4288 54.1183 41.2619C54.2952 40.8598 54.4804 40.4617 54.6631 40.0624C55.403 38.4453 56.1432 36.8283 56.8832 35.2113C56.996 34.9648 56.9817 34.9328 56.7294 34.8822C56.0224 34.7405 55.3081 34.6599 54.5894 34.6315C52.7656 34.5593 50.9875 34.8331 49.2495 35.4102C47.2857 36.0622 45.5161 37.0749 43.9702 38.5014C42.5351 39.8255 41.3763 41.3835 40.446 43.1256C38.9924 45.8475 38.4077 48.7662 38.6769 51.8691C38.7848 53.1131 39.0265 54.3311 39.3813 55.5233C40.2423 58.416 41.7661 60.8624 43.976 62.8247C46.8029 65.3349 50.0995 66.5768 53.7694 66.7072C53.8929 66.7072 53.9897 66.7095 54.0863 66.7068C55.016 66.6809 55.941 66.601 56.8557 66.42C59.0282 65.9902 61.0208 65.1129 62.8333 63.7903C63.0296 63.6471 63.0418 63.5947 62.9235 63.3807C61.9031 61.5353 60.8825 59.6902 59.8616 57.8451Z" fill="#EE4D31"/>
</g>
</g>
<g id="Group 6">
<mask id="mask1_2_31" style="mask-type:alpha" maskUnits="userSpaceOnUse" x="52" y="48" width="17" height="15">
<path id="Clip 5" fill-rule="evenodd" clip-rule="evenodd" d="M52.9492 48.9858H68.8925V62.4647H52.9492V48.9858Z" fill="white"/>
</mask>
<g mask="url(#mask1_2_31)">
<path id="Fill 4" fill-rule="evenodd" clip-rule="evenodd" d="M68.8382 55.5648C67.5793 53.4465 66.3219 51.3275 65.0662 49.2075C64.9772 49.057 64.8544 48.9863 64.6768 48.9865C63.4243 48.9882 62.1718 48.9874 60.9193 48.9876C59.6756 48.9877 58.432 48.9895 57.1884 48.9858C56.9889 48.9852 56.8576 49.0603 56.7578 49.2291C55.508 51.3423 54.2545 53.4534 53.0019 55.5652C52.9707 55.6179 52.9299 55.6782 52.9594 55.7343C52.9866 55.786 53.0563 55.7572 53.1062 55.7572C55.6068 55.7585 58.1074 55.7586 60.608 55.7573C60.8187 55.7572 60.9725 55.8395 61.0768 56.019C61.2908 56.3871 61.5086 56.7531 61.7251 57.1198C62.7568 58.8673 63.7885 60.6147 64.8207 62.3619C64.8468 62.4061 64.8707 62.4637 64.9302 62.4647C64.9853 62.4656 65.0036 62.4094 65.0277 62.3688C65.2466 61.9985 65.4648 61.6278 65.6844 61.2578C66.7267 59.5013 67.7688 57.7446 68.8131 55.9891C68.8971 55.848 68.9282 55.7163 68.8382 55.5648Z" fill="#EE4D31"/>
</g>
</g>
<path id="Fill 7" fill-rule="evenodd" clip-rule="evenodd" d="M62.8722 40.7219C62.1976 41.0344 61.5323 41.3584 60.9247 41.7834C60.0725 42.3794 59.4416 43.1226 59.1233 44.088C58.8948 44.7809 58.8246 45.494 58.8165 46.2151C58.8143 46.4071 58.8469 46.4367 59.0551 46.4367C61.4018 46.4369 63.7486 46.4369 66.0953 46.4367C66.3078 46.4366 66.3564 46.3943 66.3494 46.1944C66.3327 45.7165 66.3296 45.2389 66.3494 44.761C66.3583 44.5478 66.2972 44.4902 66.0721 44.489C65.6939 44.487 65.3157 44.4905 64.9375 44.491C63.8393 44.4926 62.7411 44.4942 61.643 44.4948C61.4085 44.495 61.3683 44.4405 61.4419 44.2278C61.59 43.7996 61.8842 43.4805 62.2826 43.245C62.626 43.042 62.9862 42.8664 63.3446 42.6885C63.989 42.3686 64.6345 42.0548 65.205 41.6157C65.9499 41.0424 66.3531 40.3123 66.3894 39.4111C66.4345 38.2924 65.9458 37.4344 64.9116 36.8776C63.7406 36.2471 62.5068 36.1392 61.2239 36.528C60.2016 36.8379 59.434 37.4427 58.8981 38.3177C58.8327 38.4246 58.8495 38.5071 58.9414 38.593C59.3626 38.9867 59.7802 39.3838 60.1992 39.7794C60.2149 39.7942 60.2323 39.8074 60.2566 39.8279C60.3516 39.6808 60.4393 39.5358 60.5362 39.3965C61.1549 38.5069 62.1174 38.0999 63.1625 38.2979C63.6402 38.3885 64.0118 38.6215 64.127 39.0996C64.2222 39.4949 64.0859 39.838 63.792 40.1271C63.5292 40.3855 63.2084 40.5662 62.8722 40.7219Z" fill="#EE4D31"/>
<path id="Fill 9" fill-rule="evenodd" clip-rule="evenodd" d="M66.2934 63.3316C66.2162 63.3399 66.1192 63.2941 66.0952 63.4258C66.0697 63.5654 66.0221 63.7013 65.9705 63.888C65.9205 63.7034 65.8755 63.5689 65.8491 63.431C65.8224 63.2917 65.7169 63.3386 65.633 63.3324C65.5295 63.3247 65.5533 63.4004 65.5528 63.4546C65.5511 63.6557 65.5516 63.8568 65.5526 64.0579C65.5529 64.1085 65.5374 64.1687 65.6261 64.1719C65.7146 64.1751 65.7263 64.1257 65.7254 64.0586C65.7236 63.9322 65.7249 63.8058 65.7249 63.6794C65.7939 63.7995 65.8238 63.9237 65.8595 64.0463C65.8767 64.1052 65.8804 64.1735 65.9804 64.1742C66.0832 64.1749 66.081 64.1021 66.099 64.0452C66.1425 63.9076 66.1561 63.761 66.2395 63.6001C66.2395 63.7746 66.2398 63.9143 66.2393 64.0541C66.2391 64.1066 66.224 64.1672 66.3102 64.1703C66.3936 64.1734 66.392 64.1163 66.392 64.0612C66.392 63.8601 66.3917 63.659 66.3923 63.4578C66.3926 63.391 66.4004 63.3201 66.2934 63.3316Z" fill="#EE4D31"/>
<path id="Fill 11" fill-rule="evenodd" clip-rule="evenodd" d="M66.2792 63.3296C66.0794 63.3302 65.8796 63.329 65.6797 63.3302C65.6231 63.3305 65.5577 63.3204 65.5513 63.3936C65.5443 63.4745 65.6089 63.4827 65.679 63.4741C65.8478 63.4534 65.8809 63.5218 65.8645 63.636C65.8562 63.6943 65.8631 63.754 65.8632 63.813C65.8632 63.8957 65.8658 63.9784 65.8624 64.061C65.8596 64.1298 65.8786 64.1744 65.982 64.1742C66.0863 64.174 66.0771 64.1191 66.0772 64.0656C66.0774 63.9298 66.0834 63.7938 66.0755 63.6583C66.0685 63.5404 66.0717 63.4435 66.2758 63.474C66.3364 63.4831 66.3914 63.4752 66.3925 63.4042C66.3937 63.3344 66.3442 63.3294 66.2792 63.3296Z" fill="#EE4D31"/>
</g>
</g>
</g>
<defs>
<filter id="filter0_d_2_31" x="0" y="0" width="108" height="108" filterUnits="userSpaceOnUse" color-interpolation-filters="sRGB">
<feFlood flood-opacity="0" result="BackgroundImageFix"/>
<feColorMatrix in="SourceAlpha" type="matrix" values="0 0 0 0 0 0 0 0 0 0 0 0 0 0 0 0 0 0 127 0" result="hardAlpha"/>
<feOffset dy="4"/>
<feGaussianBlur stdDeviation="12"/>
<feColorMatrix type="matrix" values="0 0 0 0 0.0980392 0 0 0 0 0.203922 0 0 0 0 0.560784 0 0 0 0.12 0"/>
<feBlend mode="normal" in2="BackgroundImageFix" result="effect1_dropShadow_2_31"/>
<feBlend mode="normal" in="SourceGraphic" in2="effect1_dropShadow_2_31" result="shape"/>
</filter>
</defs>
</svg>
