<?xml version="1.0" encoding="UTF-8"?>
<svg width="110px" height="32px" viewBox="0 0 110 32" version="1.1" xmlns="http://www.w3.org/2000/svg" xmlns:xlink="http://www.w3.org/1999/xlink">
    <!-- Generator: Sketch 64 (93537) - https://sketch.com -->
    <title>Group 25</title>
    <desc>Created with Sketch.</desc>
    <defs>
        <polygon id="path-1" points="0 0.536652893 30.3305207 0.536652893 30.3305207 30.9248752 0 30.9248752"></polygon>
        <path d="M17.6820248,0.240347107 C14.7987769,0.759570248 12.7466529,3.35293388 12.9117769,6.28204959 L12.9117769,6.28204959 C12.9695702,7.32233058 12.847562,8.33784298 12.5696033,9.33776033 L12.5696033,9.33776033 C12.2081653,10.6413223 11.4027273,11.4889587 10.0707273,11.8182893 L10.0707273,11.8182893 C8.90201653,12.1081736 7.71679339,12.266876 6.51505785,12.3182479 L6.51505785,12.3182479 C6.00042149,12.3402645 5.48578512,12.3760413 4.98215702,12.4925455 L4.98215702,12.4925455 C1.92094215,13.2025785 0.0458677686,16.1280248 0.456842975,18.9461405 L0.456842975,18.9461405 C0.688933884,20.5405041 1.42557025,21.8624132 2.70436364,22.8449008 L2.70436364,22.8449008 C3.98040496,23.8264711 5.44358678,24.1805702 7.03886777,23.9750826 L7.03886777,23.9750826 C8.24427273,23.8200496 9.29556198,23.3301818 10.183562,22.4990579 L10.183562,22.4990579 C11.4036446,21.3587851 11.9990083,19.9249587 12.1045041,18.2838099 L12.1045041,18.2838099 C12.1723884,17.2251818 12.3219174,16.1830661 12.5457521,15.1482893 L12.5457521,15.1482893 C12.8383884,13.7961074 13.6034628,12.8539835 14.9382149,12.4283306 L14.9382149,12.4283306 C15.9537273,12.1035868 17.0004298,11.9247025 18.064562,11.8549835 L18.064562,11.8549835 C18.5718595,11.8210413 19.0828264,11.8292975 19.5882893,11.7485702 L19.5882893,11.7485702 C20.7863554,11.556843 21.8238843,11.0477107 22.7082149,10.212 L22.7082149,10.212 C23.9044463,9.08181818 24.5511818,7.71404132 24.5603554,5.91877686 L24.5603554,5.91877686 C24.5667769,5.72246281 24.5273306,5.39038017 24.4814628,5.05921488 L24.4814628,5.05921488 C24.4447686,4.79409917 24.3851405,4.53173554 24.3071653,4.27487603 L24.3071653,4.27487603 C23.5466777,1.77141322 21.2826446,0.144024793 18.7489091,0.144941761 L18.7489091,0.144941761 C18.397562,0.144941761 18.0407107,0.176132231 17.6820248,0.240347107" id="path-3"></path>
        <linearGradient x1="7.07113232%" y1="92.4148386%" x2="92.3978241%" y2="8.05624199%" id="linearGradient-5">
            <stop stop-color="#44DF8C" offset="0%"></stop>
            <stop stop-color="#6699FF" offset="100%"></stop>
        </linearGradient>
        <polygon id="path-6" points="0.903044628 0.152464463 11.9256198 0.152464463 11.9256198 17.4297521 0.903044628 17.4297521"></polygon>
    </defs>
    <g id="Page-1" stroke="none" stroke-width="1" fill="none" fill-rule="evenodd">
        <g id="Products-Only" transform="translate(-144.000000, -66.000000)">
            <g id="Group-25" transform="translate(144.000000, 66.000000)">
                <g id="Group-3" transform="translate(0.000000, 0.380519)">
                    <mask id="mask-2" fill="white">
                        <use xlink:href="#path-1"></use>
                    </mask>
                    <g id="Clip-2"></g>
                    <path d="M5.10324793,1.46492479 C2.80068595,1.46492479 0.928363636,3.33816446 0.928363636,5.64072645 L0.928363636,25.8216273 C0.928363636,28.1241893 2.80068595,29.9974289 5.10324793,29.9974289 L25.2272727,29.9974289 C27.5289174,29.9974289 29.402157,28.1241893 29.402157,25.8216273 L29.402157,5.64072645 C29.402157,3.33816446 27.5289174,1.46492479 25.2272727,1.46492479 L5.10324793,1.46492479 Z M25.2272727,30.9248752 L5.10324793,30.9248752 C2.28971901,30.9248752 0,28.6360736 0,25.8216273 L0,5.64072645 C0,2.82628017 2.28971901,0.536561157 5.10324793,0.536561157 L25.2272727,0.536561157 C28.0408017,0.536561157 30.3305207,2.82628017 30.3305207,5.64072645 L30.3305207,25.8216273 C30.3305207,28.6360736 28.0408017,30.9248752 25.2272727,30.9248752 L25.2272727,30.9248752 Z" id="Fill-1" fill="#6699FF" mask="url(#mask-2)"></path>
                </g>
                <g id="Group-6" transform="translate(2.752066, 4.049940)">
                    <mask id="mask-4" fill="white">
                        <use xlink:href="#path-3"></use>
                    </mask>
                    <g id="Clip-5"></g>
                    <path d="M17.6820248,0.240347107 C14.7987769,0.759570248 12.7466529,3.35293388 12.9117769,6.28204959 L12.9117769,6.28204959 C12.9695702,7.32233058 12.847562,8.33784298 12.5696033,9.33776033 L12.5696033,9.33776033 C12.2081653,10.6413223 11.4027273,11.4889587 10.0707273,11.8182893 L10.0707273,11.8182893 C8.90201653,12.1081736 7.71679339,12.266876 6.51505785,12.3182479 L6.51505785,12.3182479 C6.00042149,12.3402645 5.48578512,12.3760413 4.98215702,12.4925455 L4.98215702,12.4925455 C1.92094215,13.2025785 0.0458677686,16.1280248 0.456842975,18.9461405 L0.456842975,18.9461405 C0.688933884,20.5405041 1.42557025,21.8624132 2.70436364,22.8449008 L2.70436364,22.8449008 C3.98040496,23.8264711 5.44358678,24.1805702 7.03886777,23.9750826 L7.03886777,23.9750826 C8.24427273,23.8200496 9.29556198,23.3301818 10.183562,22.4990579 L10.183562,22.4990579 C11.4036446,21.3587851 11.9990083,19.9249587 12.1045041,18.2838099 L12.1045041,18.2838099 C12.1723884,17.2251818 12.3219174,16.1830661 12.5457521,15.1482893 L12.5457521,15.1482893 C12.8383884,13.7961074 13.6034628,12.8539835 14.9382149,12.4283306 L14.9382149,12.4283306 C15.9537273,12.1035868 17.0004298,11.9247025 18.064562,11.8549835 L18.064562,11.8549835 C18.5718595,11.8210413 19.0828264,11.8292975 19.5882893,11.7485702 L19.5882893,11.7485702 C20.7863554,11.556843 21.8238843,11.0477107 22.7082149,10.212 L22.7082149,10.212 C23.9044463,9.08181818 24.5511818,7.71404132 24.5603554,5.91877686 L24.5603554,5.91877686 C24.5667769,5.72246281 24.5273306,5.39038017 24.4814628,5.05921488 L24.4814628,5.05921488 C24.4447686,4.79409917 24.3851405,4.53173554 24.3071653,4.27487603 L24.3071653,4.27487603 C23.5466777,1.77141322 21.2826446,0.144024793 18.7489091,0.144941761 L18.7489091,0.144941761 C18.397562,0.144941761 18.0407107,0.176132231 17.6820248,0.240347107" id="Fill-4" fill="url(#linearGradient-5)" mask="url(#mask-4)"></path>
                </g>
                <g id="Group-24" transform="translate(2.752066, 4.049940)">
                    <path d="M19.5242579,24.0324508 C16.7813653,24.0425083 14.4980678,21.7647149 14.4879433,19.0098967 C14.477886,16.233062 16.7446711,13.9626074 19.5462744,13.9699285 C22.3267785,13.9763678 24.537605,16.1725165 24.5514279,18.9988884 C24.5651256,21.7720537 22.3102661,24.0232438 19.5242579,24.0324508" id="Fill-7" fill="#FFC840"></path>
                    <path d="M5.42845041,10.2066929 C2.68555785,10.2131008 0.404095041,7.93255537 0.398577294,5.17865455 C0.392169421,2.41466281 2.65803719,0.146042975 5.43120248,0.140528718 C8.22454959,0.135034711 10.4619793,2.37429917 10.4638166,5.1795719 C10.4665661,7.95273719 8.21537603,10.2002579 5.42845041,10.2066929" id="Fill-9" fill="#F45D5D"></path>
                    <path d="M34.781162,2.1546843 L34.781162,11.0686264 L34.8261124,11.0686264 C35.4756,10.1723702 36.5736744,9.79166777 37.6928479,9.79166777 C40.6494843,9.79166777 41.5007901,11.8749818 41.5007901,14.4288992 L41.5007901,21.1476099 L38.3652694,21.1476099 L38.3652694,15.324238 C38.3652694,14.0032463 38.4322364,12.3006347 36.6626579,12.3006347 C34.8040959,12.3006347 34.781162,14.3839488 34.781162,15.7049405 L34.781162,21.1476099 L31.6456413,21.1476099 L31.6456413,2.1546843 L34.781162,2.1546843 Z" id="Fill-11" fill="#082033"></path>
                    <path d="M51.6912322,15.6382488 C51.6912322,14.1603893 50.6830587,12.5687777 49.0712653,12.5687777 C47.4585545,12.5687777 46.4733149,14.1603893 46.4733149,15.6382488 C46.4733149,17.1161083 47.4585545,18.728819 49.0712653,18.728819 C50.6830587,18.728819 51.6912322,17.1161083 51.6912322,15.6382488 L51.6912322,15.6382488 Z M54.4689843,21.1478851 L51.3774967,21.1478851 L51.3774967,20.1397116 L51.3325463,20.1397116 C50.6610421,21.0130339 49.4960008,21.5056537 48.3538934,21.5056537 C45.1284719,21.5056537 43.2919264,18.5719512 43.2919264,15.5932983 C43.2919264,12.6816124 45.1514058,9.79194298 48.308943,9.79194298 C49.4519678,9.79194298 50.6160917,10.2845628 51.3774967,11.180819 L51.3774967,10.1506289 L54.4689843,10.1506289 L54.4689843,21.1478851 Z" id="Fill-13" fill="#082033"></path>
                    <path d="M66.332224,15.6247636 C66.332224,13.4763174 65.0332488,11.6599537 62.7444471,11.6599537 C60.5492157,11.6599537 59.2511579,13.5717223 59.2511579,15.6247636 C59.2511579,17.7016562 60.5024306,19.637276 62.7444471,19.637276 C65.0571,19.637276 66.332224,17.7961438 66.332224,15.6247636 L66.332224,15.6247636 Z M59.3694967,11.9424992 L59.4162818,11.9424992 C60.2896041,10.6205901 61.6115132,9.77111901 63.2636702,9.77111901 C66.4496455,9.77111901 68.4559017,12.5323587 68.4559017,15.5541273 C68.4559017,18.7162512 66.5679843,21.5261107 63.1691826,21.5261107 C61.6115132,21.5261107 60.2657529,20.6757223 59.4162818,19.4253669 L59.3694967,19.4253669 L59.3694967,27.4733256 L57.2449017,27.4733256 L57.2449017,10.1013669 L59.3694967,10.1013669 L59.3694967,11.9424992 Z" id="Fill-15" fill="#082033"></path>
                    <path d="M79.8094587,15.6247636 C79.8094587,13.4763174 78.5114008,11.6599537 76.2216818,11.6599537 C74.0264504,11.6599537 72.7283926,13.5717223 72.7283926,15.6247636 C72.7283926,17.7016562 73.9796653,19.637276 76.2216818,19.637276 C78.5343347,19.637276 79.8094587,17.7961438 79.8094587,15.6247636 L79.8094587,15.6247636 Z M72.8467314,11.9424992 L72.8935165,11.9424992 C73.7668388,10.6205901 75.0887479,9.77111901 76.740905,9.77111901 C79.9268802,9.77111901 81.9331364,12.5323587 81.9331364,15.5541273 C81.9331364,18.7162512 80.045219,21.5261107 76.6464174,21.5261107 C75.0887479,21.5261107 73.7429876,20.6757223 72.8935165,19.4253669 L72.8467314,19.4253669 L72.8467314,27.4733256 L70.7221364,27.4733256 L70.7221364,10.1013669 L72.8467314,10.1013669 L72.8467314,11.9424992 Z" id="Fill-17" fill="#082033"></path>
                    <path d="M84.7187777,15.6247636 C84.7187777,18.1273091 86.3709347,20.3922595 89.0147529,20.3922595 C91.7998438,20.3922595 93.3107281,18.1273091 93.3107281,15.5064248 C93.3107281,12.9809455 91.5870174,10.9985405 88.9441165,10.9985405 C86.4415711,10.9985405 84.7187777,13.2644083 84.7187777,15.6247636 L84.7187777,15.6247636 Z M94.3014719,21.1481603 L93.2400917,21.1481603 L93.2400917,19.1886893 L93.1923893,19.1886893 C92.3897033,20.5812347 90.6430587,21.3839207 89.0376868,21.3839207 C85.7333727,21.3839207 83.6564802,18.8116562 83.6564802,15.6247636 C83.6564802,12.4378711 85.7104388,10.0068793 88.9909017,10.0068793 C90.6669099,10.0068793 92.2713645,10.7618628 93.1923893,12.1314744 L93.2400917,12.1314744 L93.2400917,10.243557 L94.3014719,10.243557 L94.3014719,21.1481603 Z" id="Fill-19" fill="#082033"></path>
                    <g id="Group-23" transform="translate(95.404959, 10.090909)">
                        <mask id="mask-7" fill="white">
                            <use xlink:href="#path-6"></use>
                        </mask>
                        <g id="Clip-22"></g>
                        <polygon id="Fill-21" fill="#082033" mask="url(#mask-7)" points="0.903044628 0.152464463 2.01212727 0.152464463 6.66220165 10.0186215 10.839838 0.152464463 11.9259868 0.152464463 4.60916033 17.4299355 3.52301157 17.4299355 6.14297851 11.246043"></polygon>
                    </g>
                </g>
            </g>
        </g>
    </g>
</svg>